# xmcd CD database file
#
# Track frame offsets:
#	150
#	18087
#	32192
#	45810
#	76310
#	94112
#	122657
#	136520
#	153582
#	175850
#	196600
#	210257
#	226465
#	244130
#	259752
#	274742
#	288495
#	297960
#	314435
#
# Disc length: 4366 seconds
#
# Revision: 2
# Processed by: cddbd v1.5.2PL0 Copyright (c) Steve Scherf et al.
# Submitted via: CDex 1.51
#
DISCID=f8110c13
DTITLE=Billie Holiday - Vol. 074 - With Tony Scott And His Orchestra
DYEAR=1968
DGENRE=Jazz
TTITLE0=God Bless The Child
TTITLE1=Trav'lin' Light
TTITLE2=Say It Isn't So
TTITLE3=I Wished On The Moon
TTITLE4=Always
TTITLE5=Everything Happens To Me
TTITLE6=I Must Have That Man
TTITLE7=Lady Sings The Blues
TTITLE8=Do Nothin' Till You Hear From Me
TTITLE9=Ain't Misbehavin' (I'm Savin' My Love For You)
TTITLE10=Strange Fruit
TTITLE11=Some Other Spring
TTITLE12=I've Got My Love To Keep Me Warm
TTITLE13=Good Morning Heartache
TTITLE14=No Good Man
TTITLE15=I Cried For You
TTITLE16=I'll Be Seeing You
TTITLE17=I Cover The Waterfront
TTITLE18=What A Little Moonlight Can Do
EXTD=YEAR: 1968
EXTT0=
EXTT1=
EXTT2=
EXTT3=
EXTT4=
EXTT5=
EXTT6=
EXTT7=
EXTT8=
EXTT9=
EXTT10=
EXTT11=
EXTT12=
EXTT13=
EXTT14=
EXTT15=
EXTT16=
EXTT17=
EXTT18=
PLAYORDER=
